<?xml version="1.0" standalone="no"?>
<!DOCTYPE svg PUBLIC "-//W3C//DTD SVG 20010904//EN"
 "http://www.w3.org/TR/2001/REC-SVG-20010904/DTD/svg10.dtd">
<svg version="1.0" xmlns="http://www.w3.org/2000/svg"
 width="512.000000pt" height="512.000000pt" viewBox="0 0 512.000000 512.000000"
 preserveAspectRatio="xMidYMid meet">
<metadata>
Created by potrace 1.16, written by Peter Selinger 2001-2019
</metadata>
<g transform="translate(0.000000,512.000000) scale(0.100000,-0.100000)"
fill="#000000" stroke="none">
<path d="M392 4780 c-48 -30 -72 -75 -72 -140 0 -65 24 -110 72 -140 30 -18
52 -20 238 -20 113 -1 224 -5 248 -9 53 -10 108 -60 123 -111 5 -19 97 -537
204 -1150 185 -1060 197 -1118 229 -1185 37 -74 114 -160 182 -202 22 -13 68
-32 104 -43 64 -20 89 -20 1266 -18 l1200 3 80 39 c98 49 179 128 224 220 30
61 41 118 146 743 120 711 128 783 98 884 -45 154 -171 283 -323 329 -62 20
-100 20 -1537 20 -811 0 -1474 1 -1474 3 0 2 -18 106 -40 233 -47 268 -72 333
-163 423 -68 67 -114 96 -196 121 -56 18 -92 20 -320 20 -238 0 -258 -1 -289
-20z m3950 -1128 c22 -14 45 -41 59 -69 l22 -46 -73 -436 c-170 -1019 -155
-951 -231 -996 -33 -20 -55 -20 -1129 -23 -755 -2 -1111 1 -1147 8 -40 9 -60
20 -86 49 -19 22 -38 52 -41 67 -10 51 -256 1455 -256 1465 0 6 525 8 1423 7
l1422 -3 37 -23z"/>
<path d="M1982 1414 c-176 -59 -298 -182 -357 -357 -33 -100 -35 -242 -4 -343
54 -177 184 -309 362 -369 107 -36 247 -36 354 0 176 60 298 182 358 358 37
111 36 251 -3 363 -59 168 -178 287 -346 346 -112 38 -256 40 -364 2z m266
-320 c153 -63 191 -267 71 -381 -146 -138 -388 -36 -389 165 0 130 99 231 228
232 29 0 69 -7 90 -16z"/>
<path d="M3582 1414 c-176 -59 -298 -182 -357 -357 -33 -100 -35 -242 -4 -343
54 -177 184 -309 362 -369 107 -36 247 -36 354 0 176 60 298 182 358 358 37
111 36 251 -3 363 -59 168 -178 287 -346 346 -112 38 -256 40 -364 2z m266
-320 c85 -35 142 -120 142 -214 0 -129 -101 -230 -230 -230 -202 0 -306 242
-167 389 64 67 171 90 255 55z"/>
</g>
</svg>
