<?xml version="1.0" standalone="no"?>
<!DOCTYPE svg PUBLIC "-//W3C//DTD SVG 20010904//EN"
 "http://www.w3.org/TR/2001/REC-SVG-20010904/DTD/svg10.dtd">
<svg version="1.0" xmlns="http://www.w3.org/2000/svg"
 width="512.000000pt" height="512.000000pt" viewBox="0 0 512.000000 512.000000"
 preserveAspectRatio="xMidYMid meet">
<metadata>
Created by potrace 1.16, written by Peter Selinger 2001-2019
</metadata>
<g transform="translate(0.000000,512.000000) scale(0.100000,-0.100000)"
fill="#000000" stroke="none">
<path d="M1455 4422 c-784 -424 -1093 -596 -1102 -613 -10 -19 -13 -296 -13
-1249 0 -953 3 -1230 13 -1249 12 -23 178 -114 1769 -973 323 -174 433 -229
450 -224 13 3 509 268 1103 589 779 422 1083 591 1092 608 18 35 18 2463 0
2498 -11 22 -262 160 -1880 1033 -164 89 -308 163 -320 165 -15 3 -378 -189
-1112 -585z m1437 271 c180 -97 326 -178 325 -179 -25 -20 -2012 -1084 -2020
-1082 -19 5 -637 339 -642 347 -3 6 1989 1090 2004 1091 3 0 152 -80 333 -177z
m678 -367 l211 -114 -63 -35 c-278 -154 -1945 -1050 -1953 -1050 -6 0 -104 50
-218 112 l-208 113 418 226 c230 124 681 369 1003 543 322 175 588 318 592
318 5 1 103 -50 218 -113z m678 -366 c249 -135 319 -177 310 -186 -7 -6 -460
-252 -1005 -547 l-992 -535 -323 174 c-178 95 -324 177 -325 181 -2 8 1998
1092 2007 1088 3 -1 150 -80 328 -175z m-3434 -470 l325 -175 1 -477 c0 -592
-18 -549 195 -478 65 22 120 40 122 40 1 0 46 -62 99 -137 173 -246 170 -243
208 -243 62 0 61 -10 66 475 l5 442 333 -180 332 -179 0 -1149 0 -1150 -69 38
c-37 21 -494 268 -1014 548 l-946 510 -1 1148 c0 704 4 1147 9 1145 5 -1 156
-82 335 -178z m3836 -967 l-1 -1148 -932 -503 c-513 -276 -969 -523 -1014
-547 l-83 -45 0 1148 0 1149 1008 546 c554 300 1010 546 1015 546 4 1 7 -515
7 -1146z m-3067 550 l117 -64 0 -362 0 -362 -36 50 c-20 28 -58 83 -86 123
-33 47 -59 74 -76 79 -17 4 -60 -5 -122 -25 -53 -18 -99 -32 -103 -32 -4 0 -7
171 -7 381 l0 381 98 -53 c53 -28 150 -81 215 -116z"/>
<path d="M602 1724 c-33 -23 -30 -77 6 -102 62 -43 779 -422 798 -422 29 0 54
31 54 68 0 40 9 34 -400 255 -459 247 -419 229 -458 201z"/>
<path d="M597 1522 c-20 -22 -22 -75 -4 -90 42 -33 298 -162 324 -162 50 0 77
45 53 89 -12 23 -303 181 -334 181 -12 0 -30 -8 -39 -18z"/>
</g>
</svg>
