<?xml version="1.0" standalone="no"?>
<!DOCTYPE svg PUBLIC "-//W3C//DTD SVG 20010904//EN"
 "http://www.w3.org/TR/2001/REC-SVG-20010904/DTD/svg10.dtd">
<svg version="1.0" xmlns="http://www.w3.org/2000/svg"
 width="512.000000pt" height="512.000000pt" viewBox="0 0 512.000000 512.000000"
 preserveAspectRatio="xMidYMid meet">
<metadata>
Created by potrace 1.16, written by Peter Selinger 2001-2019
</metadata>
<g transform="translate(0.000000,512.000000) scale(0.100000,-0.100000)"
fill="#000000" stroke="none">
<path d="M2333 5095 c-161 -41 -301 -124 -419 -246 -85 -89 -125 -147 -169
-243 -71 -153 -78 -192 -82 -493 l-5 -273 -257 0 c-228 0 -265 -2 -331 -21
-108 -29 -194 -81 -281 -168 -93 -93 -152 -203 -175 -326 -22 -121 -197 -2609
-191 -2725 3 -56 13 -122 26 -160 50 -157 171 -300 313 -369 155 -76 21 -71
1798 -71 1752 0 1641 -4 1778 60 219 102 362 328 362 572 0 135 -179 2608
-194 2693 -43 231 -228 431 -456 494 -66 19 -103 21 -331 21 l-257 0 -4 273
c-4 260 -6 276 -31 360 -48 156 -107 257 -221 376 -119 124 -259 205 -423 247
-134 34 -318 33 -450 -1z m352 -250 c231 -48 429 -238 491 -470 11 -43 17
-127 21 -297 l6 -238 -643 0 -643 0 6 238 c6 264 14 309 74 431 53 109 169
224 283 280 139 68 265 85 405 56z m1327 -1293 c100 -40 184 -132 223 -241 11
-32 41 -406 110 -1365 84 -1179 93 -1328 82 -1382 -24 -116 -103 -214 -215
-267 l-67 -32 -1585 0 -1585 0 -67 32 c-112 53 -191 151 -215 267 -11 54 -2
202 82 1380 52 726 100 1336 106 1355 20 61 49 111 91 157 50 54 93 81 166
105 54 17 127 18 1437 16 l1380 -2 57 -23z"/>
</g>
</svg>
